<svg class="icon" viewBox="0 0 1114 1024" xmlns="http://www.w3.org/2000/svg" width="217.578" height="200"><defs><style/></defs><path d="M663.141 918c-69 0-137.3-11.3-203-33.6-9.4-3.2-14.5-13.4-11.3-22.8 3.2-9.4 13.4-14.5 22.8-11.3 61.9 21 126.3 31.7 191.4 31.7 141.1 0 246.6-53.4 296.9-85.2 81.9-51.8 118.6-107.8 118.6-140.3-.2-3.3-6.1-18.9-30.6-46.6-23.4-26.3-55.3-54.2-90-78.4-53.6-37.4-163.2-100.4-294.8-100.4-109.4 0-202.4 40.4-261.1 74.3-76.4 44.1-126 94.3-145.2 123.8-3.2 4.9-8.5 7.9-14.3 8.2-5.8.3-11.4-2.3-15-6.8-45.5-57.4-116-122.4-179.3-137.1 7.1 14.9 16.1 34.1 25.1 53.8 40.4 89 40.4 102.7 40.4 109.3 0 12-6.6 41-17.4 87.3-5.1 21.7-12.3 52.7-16.7 75.4 50.9-35.3 110.8-96.1 143.2-133.9 4.1-4.8 10.4-7.1 16.6-6.1 6.2 1 11.4 5.2 13.8 11 8.9 21.9 27.6 45.8 54.1 69.1 7.5 6.6 8.2 17.9 1.6 25.4s-17.9 8.2-25.4 1.6c-21.4-18.9-38.7-38.5-50.9-57.9-40.2 44-108.7 110.8-163.7 139.5-6.9 3.6-14.9 2.9-21-1.7-9.8-7.6-8.5-20.4-7.8-28 .7-6.8 2.1-16 4.5-27.9 4.2-21.4 10.4-48.4 16.5-74.5 7.3-31.4 16.4-70.4 16.4-79-.2-2.6-2.8-18.8-37.7-95.6-18.9-41.5-37.8-80.1-38-80.5a17.9 17.9 0 0 1 .7-17.1c3.1-5.2 8.6-8.5 14.7-8.8 42.4-1.9 89.6 17 140.4 56 35.4 27.2 64.8 58.4 83.1 79.7 12.1-14.8 27.5-30.5 45.4-46.3 28.6-25.2 62.4-49.3 97.7-69.7 62.5-36.1 161.7-79.1 279.1-79.1 57.6 0 116.5 11 175 32.8 49.2 18.3 97 43.6 141.9 75.2 37 26 71.1 56 96.1 84.4 25.6 29.1 38.5 52.4 38.5 69.1 0 52.5-51.9 117.9-135.4 170.7-53.4 33.4-165.7 90.3-315.9 90.3z" fill="#1296db"/><path d="M391.641 854.3c-2.7 0-5.5-.6-8.1-1.9-12.9-6.5-25.5-13.4-37.4-20.7-8.5-5.2-11.2-16.2-6.1-24.7s16.2-11.2 24.7-6.1c11.1 6.7 22.9 13.2 34.9 19.3 8.9 4.5 12.5 15.3 8 24.2-3 6.3-9.4 9.9-16 9.9zm74.2-91.7c-2 0-4.1-.3-6.1-1.1-9.3-3.4-14.2-13.7-10.8-23.1l70-192.8c3.4-9.3 13.7-14.2 23.1-10.8 9.3 3.4 14.2 13.7 10.8 23.1l-70 192.8c-2.7 7.4-9.6 11.9-17 11.9zm133.4 8.4c-2 0-4.1-.3-6.1-1.1-9.3-3.4-14.2-13.7-10.8-23.1l70-192.8c3.4-9.3 13.7-14.2 23.1-10.8 9.3 3.4 14.2 13.7 10.8 23.1l-70 192.8c-2.7 7.3-9.6 11.9-17 11.9zm133.4 8.3c-2 0-4.1-.3-6.1-1.1-9.3-3.4-14.2-13.7-10.8-23.1l70-192.8c3.4-9.3 13.7-14.2 23.1-10.8 9.3 3.4 14.2 13.7 10.8 23.1l-70 192.8c-2.7 7.4-9.6 11.9-17 11.9zm178.8-122.7a51.7 51.7 0 1 0 103.4 0 51.7 51.7 0 1 0-103.4 0zm-350.4-325.9c-9.9 0-18-8.1-18-18V129.2c0-9.9 8.1-18 18-18s18 8.1 18 18v183.4c0 10-8 18.1-18 18.1zm166.8 0c-9.9 0-18-8.1-18-18V129.2c0-9.9 8.1-18 18-18s18 8.1 18 18v183.4c0 10-8.1 18.1-18 18.1zm-333.5 0c-9.9 0-18-8.1-18-18V129.2c0-9.9 8.1-18 18-18s18 8.1 18 18v183.4c0 10-8.1 18.1-18 18.1z" fill="#1296db"/></svg>